<?xml version="1.0" encoding="UTF-8" standalone="no"?>
<svg
   xmlns:dc="http://purl.org/dc/elements/1.1/"
   xmlns:cc="http://creativecommons.org/ns#"
   xmlns:rdf="http://www.w3.org/1999/02/22-rdf-syntax-ns#"
   xmlns:svg="http://www.w3.org/2000/svg"
   xmlns="http://www.w3.org/2000/svg"
   xmlns:sodipodi="http://sodipodi.sourceforge.net/DTD/sodipodi-0.dtd"
   xmlns:inkscape="http://www.inkscape.org/namespaces/inkscape"
   width="32mm"
   height="32mm"
   viewBox="0 0 32 32"
   version="1.1"
   id="svg952"
   inkscape:version="1.0.1 (3bc2e813f5, 2020-09-07)"
   sodipodi:docname="favicon.svg">
  <defs
     id="defs946" />
  <sodipodi:namedview
     id="base"
     pagecolor="#ffffff"
     bordercolor="#666666"
     borderopacity="1.0"
     inkscape:pageopacity="0.0"
     inkscape:pageshadow="2"
     inkscape:zoom="0.74635762"
     inkscape:cx="-579.84401"
     inkscape:cy="107.71556"
     inkscape:document-units="mm"
     inkscape:current-layer="layer1"
     inkscape:document-rotation="0"
     showgrid="false"
     fit-margin-top="0"
     fit-margin-left="0"
     fit-margin-right="0"
     fit-margin-bottom="0"
     inkscape:window-width="1920"
     inkscape:window-height="1017"
     inkscape:window-x="-8"
     inkscape:window-y="-8"
     inkscape:window-maximized="1" />
  <metadata
     id="metadata949">
    <rdf:RDF>
      <cc:Work
         rdf:about="">
        <dc:format>image/svg+xml</dc:format>
        <dc:type
           rdf:resource="http://purl.org/dc/dcmitype/StillImage" />
        <dc:title></dc:title>
      </cc:Work>
    </rdf:RDF>
  </metadata>
  <g
     inkscape:label="Réteg 1"
     inkscape:groupmode="layer"
     id="layer1"
     transform="translate(-58.298336,-134.23078)">
    <path
       id="rect1517-5-0"
       style="fill:#f14d3a;fill-opacity:1;stroke-width:2.00242;stroke-linecap:round;stroke-linejoin:round;stroke-miterlimit:10.2;paint-order:markers fill stroke"
       d="m 63.655486,135.65943 a 10.69702,10.662191 0 0 0 -5.32158,9.18766 h -0.03557 v 21.32445 h 21.303249 v 0.0592 a 10.69702,10.662191 0 0 0 9.263614,-5.33112 10.69702,10.662191 0 0 0 0,-10.66222 10.69702,10.662191 0 0 0 -9.17275,-5.33077 v -0.0135 h 0.0086 a 10.69702,10.662191 0 0 0 -0.0086,-0.0148 v -0.0314 h -0.01799 a 10.69702,10.662191 0 0 0 -5.32193,-9.18768 10.69702,10.662191 0 0 0 -10.697058,0 z" />
    <path
       id="j"
       d="m 61.81188,159.70276 1.985629,-1.20167 c 0.38307,0.6792 0.731542,1.25383 1.567389,1.25383 0.801199,0 1.306332,-0.31341 1.306332,-1.53249 v -8.29053 h 2.438298 v 8.32502 c 0,2.52546 -1.480337,3.67498 -3.640123,3.67498 -1.950568,0 -3.082793,-1.01021 -3.657525,-2.22934"
       style="fill:#f7df1e;fill-opacity:1;stroke-width:0.0411849" />
    <path
       id="s"
       d="m 70.603286,159.53651 1.962546,-1.13629 c 0.516625,0.84369 1.18806,1.46346 2.375968,1.46346 0.998706,0 1.635532,-0.4993 1.635532,-1.18801 0,-0.82639 -0.654184,-1.1191 -1.756093,-1.60103 l -0.602424,-0.25842 c -1.73899,-0.74018 -2.892552,-1.66989 -2.892552,-3.63257 0,-1.80775 1.377328,-3.18516 3.52948,-3.18516 1.532278,0 2.634137,0.53377 3.426023,1.92834 l -1.876647,1.20511 c -0.413221,-0.74023 -0.860738,-1.03289 -1.549376,-1.03289 -0.70588,0 -1.153555,0.44762 -1.153555,1.03289 0,0.72313 0.447675,1.01585 1.480575,1.46353 l 0.602525,0.2582 c 2.048803,0.87811 3.202366,1.7733 3.202366,3.78754 0,2.16943 -1.704435,3.35728 -3.994202,3.35728 -2.238166,0 -3.684388,-1.06736 -4.390166,-2.46198"
       style="opacity:1;fill:#f7df1e;fill-opacity:1;stroke:none;stroke-width:1;stroke-miterlimit:4;stroke-dasharray:none;stroke-opacity:0.635294" />
  </g>
</svg>
